# xmcd
#
# Track frame offsets:
#	150
#	15130
#	27920
#	44927
#	59472
#	70850
#	81997
#	94355
#	110817
#	122580
#	137400
#	149812
#	159690
#	175317
#	187947
#	202092
#	215530
#	229160
#	242025
#	254462
#	264952
#	276190
#	291177
#	303680
#	317240
#
# Disc length: 4429 seconds
#
# Revision: 0
# Processed by: cddbd v1.5PL3 Copyright (c) Steve Scherf et al.
# Submitted via: dBpowerAMP V4.0
#
DISCID=87114b19
DTITLE=ADELINO NASCIMENTO - 25 SUCESSOS
DYEAR=2003
DGENRE=BREGA
TTITLE0=garota proibida
TTITLE1=não vendo mais a casa
TTITLE2=não toque esta musica
TTITLE3=adão e eva
TTITLE4=romeu e julieta
TTITLE5=sem querer querendo
TTITLE6=adeus ingrata
TTITLE7=mulher falsa
TTITLE8=vou voltar pra são luiz
TTITLE9=traga passarinho
TTITLE10=na pracinha da igreja
TTITLE11=mulher sem dono
TTITLE12=coração arrependido
TTITLE13=a cruz que carrego
TTITLE14=lembranças
TTITLE15=ruas do mundo
TTITLE16=o encontro
TTITLE17=viola velha companheira
TTITLE18=caminhoneiro apaixonado
TTITLE19=momento infeliz
TTITLE20=toca o telefone
TTITLE21=quando amei você
TTITLE22=paixão e loucura
TTITLE23=beco sem saída
TTITLE24=eu te amo feiticeira
EXTD=
EXTT0=
EXTT1=
EXTT2=
EXTT3=
EXTT4=
EXTT5=
EXTT6=
EXTT7=
EXTT8=
EXTT9=
EXTT10=
EXTT11=
EXTT12=
EXTT13=
EXTT14=
EXTT15=
EXTT16=
EXTT17=
EXTT18=
EXTT19=
EXTT20=
EXTT21=
EXTT22=
EXTT23=
EXTT24=
PLAYORDER=
